<svg xmlns="http://www.w3.org/2000/svg" width="154.039" height="43.78" viewBox="0 0 154.039 43.78"><g transform="translate(0.012 -0.016)"><path d="M114.3,33.328c-5.293,0-8.582-3.066-8.582-8.008,0-5.129,3.035-8.32,7.922-8.32h.41a20.261,20.261,0,0,1,2.61.164V10.973h3.452v21.8a42.1,42.1,0,0,1-5.812.558m-.031-13.61c-3.344,0-4.97,1.805-4.97,5.516,0,3.332,1.962,5.4,5.114,5.4.606,0,1.3-.04,2.246-.121V19.94a15.021,15.021,0,0,0-2.39-.222M67.012,32.828,57.687,16.555l0,16.273h-3.25v-20.6h4.55l9.325,16.128,0-16.128H71.6v20.6Zm29.7.317a26.912,26.912,0,0,1-5.156-.551l-.211-.04V29.676l.308.066a22.709,22.709,0,0,0,4.688.68c1.2,0,3.992-.188,3.992-1.953,0-1.48-1.93-1.852-3.48-2.149l-.1-.02c-.29-.054-.563-.109-.793-.167-2.274-.59-4.7-1.477-4.7-4.524,0-2.972,2.352-4.675,6.454-4.675a28.456,28.456,0,0,1,4.547.382l.558.082v2.793l-.3-.054a24.291,24.291,0,0,0-4.289-.485c-1.629,0-3.562.305-3.562,1.754,0,1.2,1.582,1.547,3.414,1.946,2.562.554,5.738,1.25,5.738,4.746,0,3.207-2.59,5.047-7.113,5.047m33.085,0c-3.573,0-6.882-.63-6.882-5.192,0-4.965,5.117-4.965,8.176-4.965.3,0,1.742.067,2.183.086,0-2.785-.039-3.449-4.078-3.449a29.253,29.253,0,0,0-4.949.6l-.3.054v-2.75l.2-.043a26.625,26.625,0,0,1,5.364-.55c3.914,0,7.23.394,7.23,5.25v10.59l-.238.027a57.491,57.491,0,0,1-6.707.344m1.207-7.7c-2.95,0-4.778.434-4.778,2.594,0,2.5,2.332,2.707,4.52,2.707.816,0,2.285-.1,2.734-.137V25.531c-.632-.027-2.277-.086-2.476-.086m-49.645,7.7c-3.578,0-6.886-.63-6.886-5.192,0-4.965,5.117-4.965,8.175-4.965.305,0,1.746.067,2.188.086,0-2.785-.043-3.449-4.082-3.449a29.252,29.252,0,0,0-4.95.6l-.3.054v-2.75l.207-.043a26.55,26.55,0,0,1,5.36-.55c3.913,0,7.23.394,7.23,5.25v10.59l-.239.027a57.458,57.458,0,0,1-6.7.344m1.2-7.7c-2.949,0-4.773.434-4.773,2.594,0,2.5,2.328,2.707,4.516,2.707.82,0,2.289-.1,2.738-.137V25.531c-.637-.027-2.281-.086-2.48-.086" fill="#fff"></path><g transform="translate(139 16)"><path d="M11.492,23.828V17.07a16.738,16.738,0,0,1-2.64.188,11,11,0,0,1-4.063-.793c-2.633-1.1-4.2-3.875-4.2-7.442,0-1.78.434-5.035,3.336-6.789A10.7,10.7,0,0,1,9.684.992c.925,0,2.175.07,3.382.14l1.961.1V22.262l-3.535,1.566ZM9.426,3.711C5.918,3.71,4.14,5.5,4.14,9.023c0,4.536,2.652,5.489,4.882,5.489a17.013,17.013,0,0,0,2.5-.172V3.809c-1.058-.07-1.547-.1-2.1-.1Z" fill="#fff"></path></g><g transform="translate(25)"><path d="M14.012.016,2.594,31.386A2.19,2.19,0,0,1,.758,32.813v.015h12.07a2.184,2.184,0,0,0,2.055-1.441L26.305.016Z" fill="#fff"></path></g><path d="M24.773,32.352a2.067,2.067,0,0,0,1.688-.875,2.222,2.222,0,0,0,.273-.508l4.188-11.512-2.45-6.723a2.07,2.07,0,0,0-3.6-.4,2.329,2.329,0,0,0-.273.508L20.414,24.352l2.461,6.75a2.067,2.067,0,0,0,1.9,1.25" fill="#fff"></path><g transform="translate(-1 10)"><path d="M26.668.984h-12.2a2.188,2.188,0,0,0-2.059,1.442L.988,33.8H13.281L24.7,2.427A2.187,2.187,0,0,1,26.668.988Z" fill="#fff"></path></g></g></svg>